<svg width="204" height="34" viewBox="0 0 204 34" fill="none" xmlns="http://www.w3.org/2000/svg">
  <path
    d="M44.1286 30.3732C43.8353 29.9731 43.8466 29.4588 44.0158 29.013C44.0383 28.9216 44.0722 28.8415 44.106 28.7615C44.2414 28.3729 44.3768 27.9157 44.3768 27.5042C44.3768 27.1156 44.264 26.7841 43.9481 26.5555L43.8579 26.4869H43.9707C44.2978 26.4869 44.625 26.4869 44.9408 26.4869C45.5274 26.4869 46.114 26.4869 46.6894 26.4869C48.4718 26.4869 50.2654 26.4869 52.0478 26.4869H52.1042L52.0817 26.5326C51.9463 26.9212 51.8109 27.2984 51.6756 27.6871C51.6192 27.8128 51.574 27.95 51.5289 28.0757L51.5176 28.0986H51.4951C50.1075 28.0986 48.7312 28.0986 47.3437 28.0986C47.2421 28.0986 47.1406 28.0986 47.0391 28.0986C46.994 28.0986 46.9601 28.0986 46.915 28.0986C46.915 28.11 46.915 28.11 46.915 28.11C46.8812 28.2243 46.836 28.3272 46.8022 28.4301C46.7458 28.5901 46.7796 28.7387 46.9601 28.7501C47.8739 28.8415 48.7989 28.9216 49.7127 29.0016C50.0398 29.0359 50.3557 29.173 50.57 29.4474C50.8746 29.836 50.8521 30.3618 50.6941 30.8076C50.6039 31.059 50.5136 31.3105 50.4234 31.5505C50.4008 31.6305 50.367 31.6991 50.3331 31.7677C49.927 32.6136 48.9569 33.3337 48.0205 33.3337C46.2381 33.3337 44.4557 33.3337 42.6621 33.3337H42.6169L42.6282 33.2879C42.8087 32.7736 43.0005 32.2592 43.181 31.7449L43.1923 31.722H43.2148C44.6362 31.722 46.0464 31.722 47.4565 31.722C47.637 31.722 47.84 31.562 47.9077 31.3905C47.9867 31.1962 47.9077 31.0819 47.7159 31.059C46.8135 30.9676 45.8997 30.899 44.9972 30.819C44.6588 30.7847 44.3429 30.6475 44.1286 30.3732Z"
    fill="white" />
  <path
    d="M57.3813 29.6874C57.6971 29.6874 58.0243 29.4245 58.1371 29.1273C58.1935 28.9787 58.2499 28.8187 58.3063 28.6587C58.4078 28.3843 58.2838 28.1214 57.9679 28.1214C57.3361 28.1214 56.6931 28.1214 56.0614 28.1214C55.8696 28.6472 55.6891 29.173 55.4974 29.6874C56.1291 29.6874 56.7495 29.6874 57.3813 29.6874ZM53.2863 28.7615C53.4217 28.3615 53.5457 27.9157 53.5457 27.5042C53.557 27.1156 53.4329 26.7841 53.1171 26.5555L53.0268 26.4869H53.1396C53.4668 26.4869 53.7939 26.4869 54.1211 26.4869C56.0276 26.4869 57.934 26.4869 59.8405 26.4869C60.2241 26.4869 60.6076 26.6126 60.8445 26.9212C61.1604 27.3099 61.1491 27.8357 60.9912 28.2929C60.8333 28.7158 60.6866 29.1273 60.5399 29.5502C60.2015 30.4989 59.1411 31.3334 58.1258 31.3334C57.0541 31.3334 55.9824 31.3334 54.9107 31.3334C54.7866 31.6648 54.6738 31.9849 54.561 32.3164C54.4369 32.6478 54.3241 32.9793 54.2 33.3108L54.1888 33.3337H54.1662C54.1098 33.3337 54.0647 33.3337 54.0083 33.3337C53.2412 33.3337 52.474 33.3337 51.6957 33.3337H51.6505L51.6618 33.2879C51.9326 32.5335 52.2033 31.7791 52.474 31.0247C52.7448 30.2703 53.0155 29.5159 53.2863 28.7615Z"
    fill="white" />
  <path
    d="M64.4512 28.6815C64.2481 29.253 64.0451 29.8246 63.842 30.3961C63.7518 30.659 63.6615 30.9104 63.5713 31.1619C63.4697 31.4362 63.5938 31.6991 63.8984 31.6991C64.5753 31.6991 65.2409 31.6991 65.9064 31.6991C66.2223 31.6991 66.5607 31.4362 66.6623 31.139C66.7525 30.8761 66.8428 30.6247 66.933 30.3732C67.1361 29.8017 67.3391 29.2302 67.5422 28.6587C67.6437 28.3729 67.5309 28.1214 67.215 28.1214C66.5494 28.1214 65.8726 28.1214 65.207 28.1214C65.1619 28.1214 65.1055 28.1214 65.0604 28.1214C64.925 28.1214 64.7896 28.1214 64.6542 28.1214C64.5866 28.3157 64.5189 28.4986 64.4512 28.6815ZM62.1499 27.5042C62.1499 27.1156 62.0371 26.7841 61.7212 26.5555L61.6309 26.4869H61.7438C62.0709 26.4869 62.398 26.4869 62.7139 26.4869C63.3005 26.4869 63.8759 26.4869 64.4512 26.4869C65.9967 26.4869 67.5422 26.4869 69.0877 26.4869C69.4712 26.4869 69.8548 26.6126 70.0917 26.9212C70.4075 27.3099 70.3963 27.8357 70.227 28.2929C70.0353 28.8415 69.8435 29.3788 69.6517 29.9274C69.4599 30.4647 69.2569 31.0133 69.0651 31.5505C68.7267 32.4993 67.6663 33.3337 66.6623 33.3337C65.1168 33.3337 63.5713 33.3337 62.0258 33.3337C61.6422 33.3337 61.27 33.2079 61.0218 32.8993C60.7172 32.5107 60.7172 31.9849 60.8864 31.5277C61.0556 31.0705 61.2135 30.6018 61.3828 30.1446C61.5407 29.676 61.7099 29.2187 61.8791 28.7615C62.0145 28.3729 62.1499 27.9157 62.1499 27.5042Z"
    fill="white" />
  <path
    d="M73.8182 29.6874C74.4386 29.6874 75.0704 29.6874 75.6908 29.6874C76.0067 29.6874 76.3338 29.4245 76.4467 29.1273C76.5031 28.9787 76.5595 28.8187 76.6159 28.6587C76.7174 28.3729 76.5933 28.1214 76.2774 28.1214C75.6457 28.1214 75.014 28.1214 74.371 28.1214C74.1905 28.6472 73.9987 29.173 73.8182 29.6874ZM71.5958 28.7615C71.7425 28.3615 71.8553 27.9157 71.8553 27.5042C71.8666 27.1156 71.7425 26.7841 71.4379 26.5555L71.3364 26.4869H71.4605C71.7876 26.4869 72.1148 26.4869 72.4419 26.4869C74.3484 26.4869 76.2436 26.4869 78.1501 26.4869C78.5336 26.4869 78.9172 26.6126 79.1654 26.9212C79.47 27.3099 79.4587 27.8471 79.3007 28.2929C79.1428 28.7158 78.9962 29.1273 78.8495 29.5502C78.5675 30.3161 77.8568 30.9676 77.1009 31.2191C77.2025 31.562 77.3153 31.8934 77.4281 32.2364C77.5409 32.5907 77.665 32.9336 77.7891 33.2879L77.8004 33.3337H77.7552C76.9092 33.3337 76.0744 33.3337 75.2396 33.3337H75.217L75.2057 33.3108C75.0929 32.9793 74.9688 32.6478 74.856 32.3049C74.7545 31.9849 74.653 31.6534 74.5402 31.3334C74.1002 31.3334 73.6602 31.3334 73.2203 31.3334C73.1075 31.6648 72.9834 31.9849 72.8706 32.3164C72.7465 32.6478 72.6337 32.9793 72.5096 33.3108L72.4983 33.3337H72.4757C72.4193 33.3337 72.3742 33.3337 72.3178 33.3337C71.5507 33.3337 70.7836 33.3337 70.0052 33.3337H69.9601L69.9714 33.2879C70.2421 32.5335 70.5129 31.7791 70.7836 31.0247C71.0543 30.2703 71.3251 29.5159 71.5958 28.7615Z"
    fill="white" />
  <path
    d="M82.7156 28.1214C81.8695 28.1214 81.0348 28.1214 80.2 28.1214H80.1548L80.1661 28.0757C80.3579 27.5499 80.5384 27.0241 80.7302 26.5098L80.7414 26.4869H80.764C83.3022 26.4869 85.8292 26.4869 88.3674 26.4869H88.4238L88.4012 26.5326C88.2095 27.0584 88.029 27.5728 87.8372 28.0986V28.1214H87.8033C86.9573 28.1214 86.1112 28.1214 85.2651 28.1214C84.9605 28.9901 84.6447 29.8474 84.3401 30.7047C84.0242 31.5734 83.7083 32.4421 83.4038 33.3108L83.3925 33.3337H83.3699C82.5464 33.3337 81.7116 33.3337 80.8881 33.3337H80.843L80.8543 33.2879C81.1701 32.4192 81.4747 31.5505 81.7906 30.6818C82.0952 29.8246 82.411 28.9787 82.7156 28.1214Z"
    fill="white" />
  <path
    d="M89.4838 30.3732C89.1905 29.9731 89.2018 29.4588 89.371 29.013C89.3936 28.9216 89.4274 28.8415 89.4613 28.7615C89.5967 28.3729 89.732 27.9157 89.732 27.5042C89.732 27.1156 89.6192 26.7841 89.3034 26.5555L89.2131 26.4869H89.3259C89.6531 26.4869 89.9802 26.4869 90.2961 26.4869C90.8827 26.4869 91.4693 26.4869 92.0446 26.4869C93.827 26.4869 95.6207 26.4869 97.4031 26.4869H97.4595L97.4369 26.5326C97.3016 26.9212 97.1662 27.2984 97.0308 27.6871C96.9744 27.8128 96.9293 27.95 96.8842 28.0757L96.8729 28.0986H96.8503C95.4628 28.0986 94.0865 28.0986 92.6989 28.0986C92.5974 28.0986 92.4959 28.0986 92.3943 28.0986C92.3492 28.0986 92.3154 28.0986 92.2703 28.0986C92.2703 28.11 92.2703 28.11 92.2703 28.11C92.2364 28.2243 92.1913 28.3272 92.1574 28.4301C92.101 28.5901 92.1349 28.7387 92.3154 28.7501C93.2291 28.8415 94.1542 28.9216 95.0679 29.0016C95.3951 29.0359 95.7109 29.173 95.9253 29.4474C96.2299 29.836 96.2073 30.3618 96.0494 30.8076C95.9591 31.059 95.8689 31.3105 95.7786 31.5505C95.7561 31.6305 95.7222 31.6991 95.6884 31.7677C95.2823 32.6136 94.3121 33.3337 93.3758 33.3337C91.5934 33.3337 89.811 33.3337 88.0173 33.3337H87.9722L87.9835 33.2879C88.164 32.7736 88.3558 32.2592 88.5362 31.7449L88.5475 31.722H88.5701C89.9915 31.722 91.4016 31.722 92.8117 31.722C92.9922 31.722 93.1953 31.562 93.263 31.3905C93.3419 31.1962 93.263 31.0819 93.0712 31.059C92.1687 30.9676 91.255 30.899 90.3525 30.819C90.0141 30.7847 89.6982 30.6475 89.4838 30.3732Z"
    fill="white" />
  <path
    d="M104.747 29.093C105.514 29.093 106.281 29.093 107.059 29.093C107.319 29.093 107.612 28.8644 107.714 28.6244V28.6129C107.725 28.6129 107.725 28.6015 107.725 28.5901C107.815 28.35 107.702 28.1214 107.432 28.1214C106.653 28.1214 105.875 28.1214 105.096 28.1214C104.984 28.4415 104.86 28.7615 104.747 29.093ZM103.81 31.6991C104.578 31.6991 105.345 31.6991 106.112 31.6991C106.394 31.6991 106.687 31.4591 106.789 31.1962C106.789 31.1848 106.789 31.1733 106.8 31.1733C106.868 30.9333 106.743 30.7276 106.495 30.7276C105.717 30.7276 104.939 30.7276 104.16 30.7276C104.036 31.059 103.923 31.3791 103.81 31.6991ZM101.498 31.0247C101.769 30.2703 102.039 29.5159 102.31 28.7615C102.457 28.3615 102.57 27.9271 102.581 27.5042C102.581 27.1156 102.468 26.7841 102.163 26.5555L102.062 26.4869H102.186C102.513 26.4869 102.84 26.4869 103.167 26.4869C105.187 26.4869 107.217 26.4869 109.248 26.4869C109.665 26.4869 110.083 26.6469 110.32 27.0127C110.556 27.4013 110.534 27.8814 110.387 28.2929C110.342 28.4186 110.297 28.5329 110.252 28.6472C110.083 29.1616 109.699 29.6074 109.282 29.916C109.519 30.3046 109.496 30.7847 109.338 31.1962C109.293 31.3105 109.259 31.4362 109.214 31.5505C109.022 32.0535 108.661 32.4993 108.233 32.8193C107.826 33.1165 107.319 33.3451 106.811 33.3451C104.781 33.3451 102.75 33.3451 100.719 33.3451H100.674L100.686 33.2879C100.956 32.5335 101.227 31.7791 101.498 31.0247Z"
    fill="white" />
  <path
    d="M111.559 27.5042C111.559 27.1156 111.447 26.7841 111.131 26.5555L111.041 26.4869H111.153C111.481 26.4869 111.808 26.4869 112.135 26.4869C112.71 26.4869 113.297 26.4869 113.872 26.4869C115.756 26.4869 117.64 26.4869 119.524 26.4869H119.58L119.558 26.5326C119.366 27.0584 119.185 27.5728 118.994 28.0986L118.982 28.1214H118.96C117.459 28.1214 115.959 28.1214 114.47 28.1214C114.335 28.1214 114.199 28.1214 114.075 28.1214C113.962 28.4415 113.85 28.7615 113.725 29.0816V29.093C115.147 29.093 116.568 29.093 118.001 29.093H118.046L118.035 29.1387C117.843 29.6645 117.651 30.1903 117.471 30.7047L117.459 30.7276H117.437C115.993 30.7276 114.56 30.7276 113.128 30.7276C113.082 30.8761 113.026 31.0133 112.981 31.1619C112.879 31.4362 112.992 31.6991 113.308 31.6991C114.752 31.6991 116.196 31.6991 117.64 31.6991H117.696L117.674 31.7449C117.482 32.2706 117.301 32.7964 117.121 33.3108L117.11 33.3451H117.076C115.203 33.3451 113.319 33.3451 111.435 33.3451C111.007 33.3451 110.578 33.1851 110.352 32.8079C110.116 32.4192 110.138 31.9392 110.296 31.5277C110.465 31.0705 110.623 30.6018 110.792 30.1446C110.962 29.6874 111.12 29.2187 111.289 28.7615C111.435 28.3615 111.548 27.9271 111.559 27.5042Z"
    fill="white" />
  <path
    d="M122.816 28.1214C121.97 28.1214 121.135 28.1214 120.3 28.1214H120.255L120.266 28.0757C120.458 27.5499 120.639 27.0241 120.831 26.5098L120.842 26.4869H120.864C123.403 26.4869 125.93 26.4869 128.468 26.4869H128.524L128.502 26.5326C128.31 27.0584 128.129 27.5728 127.938 28.0986V28.1214H127.904C127.058 28.1214 126.212 28.1214 125.365 28.1214C125.061 28.9901 124.745 29.8474 124.44 30.7047C124.125 31.5734 123.809 32.4421 123.504 33.3108L123.493 33.3337H123.47C122.647 33.3337 121.812 33.3337 120.988 33.3337H120.943L120.955 33.2879C121.27 32.4192 121.575 31.5505 121.891 30.6818C122.196 29.8246 122.511 28.9787 122.816 28.1214Z"
    fill="white" />
  <path
    d="M131.761 28.1214C130.915 28.1214 130.081 28.1214 129.246 28.1214H129.201L129.212 28.0757C129.404 27.5499 129.584 27.0241 129.776 26.5098L129.787 26.4869H129.81C132.348 26.4869 134.875 26.4869 137.413 26.4869H137.47L137.447 26.5326C137.255 27.0584 137.075 27.5728 136.883 28.0986V28.1214H136.849C136.003 28.1214 135.157 28.1214 134.311 28.1214C134.006 28.9901 133.69 29.8474 133.386 30.7047C133.07 31.5734 132.754 32.4421 132.45 33.3108L132.438 33.3337H132.416C131.592 33.3337 130.757 33.3337 129.934 33.3337H129.889L129.9 33.2879C130.216 32.4192 130.521 31.5505 130.836 30.6818C131.141 29.8246 131.457 28.9787 131.761 28.1214Z"
    fill="white" />
  <path
    d="M138.654 28.7615C138.8 28.3729 138.924 27.9157 138.924 27.5042C138.924 27.1156 138.8 26.7841 138.485 26.5555L138.394 26.4755H138.507C138.846 26.4755 139.173 26.4755 139.5 26.4755C140.323 26.4755 141.147 26.4755 141.97 26.4755H142.027L142.004 26.5326C141.824 27.0584 141.632 27.5728 141.451 28.0986C141.237 28.7044 141.011 29.3102 140.786 29.9274C140.572 30.5332 140.357 31.139 140.132 31.7449C139.951 32.2706 139.759 32.7964 139.567 33.3108V33.3337H139.534C138.71 33.3337 137.887 33.3337 137.063 33.3337H137.018L137.029 33.2879C137.3 32.5335 137.571 31.7791 137.842 31.0247C138.112 30.2703 138.383 29.5159 138.654 28.7615Z"
    fill="white" />
  <path
    d="M143.215 28.7615C143.361 28.3615 143.485 27.9157 143.485 27.5042C143.485 27.1156 143.361 26.7841 143.045 26.5555L142.955 26.4755H143.068C143.406 26.4755 143.734 26.4755 144.061 26.4755C144.828 26.4755 145.595 26.4755 146.362 26.4755H146.385L146.396 26.4983C146.7 27.0698 147.005 27.6528 147.298 28.2357C147.58 28.7844 147.862 29.333 148.156 29.8817C148.347 29.333 148.55 28.7844 148.742 28.2357C148.957 27.6642 149.16 27.0813 149.363 26.5098L149.374 26.4755H149.397C149.453 26.4755 149.509 26.4755 149.555 26.4755C150.333 26.4755 151.111 26.4755 151.878 26.4755H151.935L151.924 26.5326C151.54 27.5728 151.179 28.6015 150.807 29.6417C150.434 30.6818 150.062 31.7106 149.69 32.7507C149.622 32.9336 149.555 33.1279 149.487 33.3108L149.476 33.3337H149.453C148.675 33.3337 147.907 33.3337 147.14 33.3337H147.118L147.107 33.3222C146.802 32.7393 146.497 32.1678 146.193 31.5963C145.911 31.0362 145.629 30.4875 145.347 29.9389C145.144 30.4875 144.952 31.0362 144.749 31.5848C144.546 32.1563 144.331 32.7393 144.128 33.3108V33.3337H144.095C144.049 33.3337 143.993 33.3337 143.937 33.3337C143.169 33.3337 142.402 33.3337 141.624 33.3337H141.579L141.59 33.2879C141.861 32.5335 142.132 31.7791 142.402 31.0247C142.673 30.2703 142.944 29.5159 143.215 28.7615Z"
    fill="white" />
  <path
    d="M155.882 29.1159L155.893 29.093H155.916C156.536 29.093 157.157 29.093 157.777 29.093C158.601 29.093 159.424 29.093 160.248 29.093H160.304L160.282 29.1387C160.033 29.836 159.785 30.5332 159.537 31.2305C159.289 31.9277 159.029 32.625 158.781 33.3108L158.77 33.3451H158.747C157.924 33.3451 157.089 33.3451 156.266 33.3451C155.938 33.3451 155.6 33.3451 155.262 33.3451C154.438 33.3451 153.626 33.3451 152.802 33.3451C152.374 33.3451 151.956 33.1851 151.731 32.8079C151.494 32.4192 151.516 31.9392 151.663 31.5277C151.832 31.0705 152.001 30.6018 152.159 30.1446C152.329 29.676 152.498 29.2187 152.656 28.7615C152.802 28.3615 152.926 27.9157 152.926 27.5042C152.938 27.1156 152.814 26.7841 152.498 26.5555L152.408 26.4869H152.52C152.848 26.4869 153.175 26.4869 153.502 26.4869C154.088 26.4869 154.664 26.4869 155.239 26.4869C156.063 26.4869 156.886 26.4869 157.698 26.4869C158.86 26.4869 160.022 26.4869 161.184 26.4869H161.241L161.218 26.5326C161.037 27.0584 160.846 27.5728 160.665 28.0986L160.654 28.1214H160.631C159.469 28.1214 158.308 28.1214 157.146 28.1214C156.706 28.1214 156.277 28.1214 155.837 28.1214C155.713 28.1214 155.578 28.1214 155.442 28.1214C155.374 28.3157 155.307 28.4986 155.239 28.6815C155.104 29.0587 154.968 29.4359 154.833 29.8131C154.664 30.2589 154.506 30.7161 154.348 31.1619C154.246 31.4477 154.37 31.6991 154.686 31.6991C155.07 31.6991 155.442 31.6991 155.826 31.6991C156.153 31.6991 156.48 31.6991 156.807 31.6991C156.92 31.3791 157.044 31.059 157.157 30.7276C156.559 30.7276 155.95 30.7276 155.352 30.7276H155.295L155.318 30.6818C155.51 30.156 155.69 29.6302 155.882 29.1159Z"
    fill="white" />
  <path
    d="M4.36198 7.07811C4.75305 6.01128 5.08396 4.82253 5.08396 3.72521C5.08396 2.68886 4.78313 1.80492 3.94082 1.1953L3.67008 0.981934H4.00099C4.87338 0.981934 5.74578 0.981934 6.61817 0.981934C8.66379 0.981934 10.7395 0.981934 12.7851 0.981934H12.8754V1.07338C13.2965 3.14608 13.7177 5.21878 14.1087 7.29148C14.5299 9.30322 14.921 11.315 15.3421 13.3267C17.1772 11.2845 19.0423 9.27274 20.9074 7.261C22.8327 5.1883 24.7279 3.1156 26.6231 1.04289L26.6532 0.981934H26.7134C28.759 0.981934 30.8347 0.981934 32.8803 0.981934H33.0307L32.9705 1.13434C32.76 1.71347 32.5795 2.26213 32.3689 2.81079C31.3762 5.55407 30.4135 8.29735 29.4208 11.0102C28.4281 13.7534 27.4654 16.4967 26.4727 19.2095L26.4426 19.2705H26.3824C24.3368 19.2705 22.2611 19.2705 20.2155 19.2705C20.0651 19.2705 19.9448 19.2705 19.7944 19.2705H19.6439L19.7041 19.1486C20.0651 18.1427 20.4261 17.1368 20.7871 16.1309C21.0879 15.2775 21.3887 14.424 21.6896 13.5705C20.8773 14.4545 20.0651 15.3384 19.2529 16.2224C18.3203 17.2283 17.4178 18.2646 16.4853 19.24L16.4552 19.2705H16.395C15.3421 19.2705 14.2892 19.2705 13.2363 19.2705C12.1835 19.2705 11.1306 19.2705 10.1078 19.2705H10.0175L9.98742 19.2095C9.80693 18.2036 9.59635 17.1978 9.38577 16.1919C9.20528 15.308 9.05486 14.3935 8.87437 13.5096C8.54346 14.424 8.21255 15.308 7.88164 16.1919C7.52065 17.1978 7.15966 18.2036 6.79867 19.2095V19.2705H6.70842C6.58809 19.2705 6.43768 19.2705 6.31735 19.2705C4.24165 19.2705 2.19603 19.2705 0.12033 19.2705H0L0.0300826 19.1486C0.752065 17.1368 1.47405 15.1251 2.19603 13.1133C2.91801 11.1016 3.64 9.08985 4.36198 7.07811Z"
    fill="white" />
  <path
    d="M52.6414 1.01233H52.7015C53.5739 1.01233 54.4463 1.01233 55.3187 1.01233C57.5448 1.01233 59.7709 1.01233 61.967 1.01233H62.0572L62.0873 1.07329C62.4483 2.29253 62.8093 3.51176 63.1703 4.731C63.5012 5.88927 63.8622 7.04755 64.2232 8.20582C65.4265 7.04755 66.6298 5.85879 67.8331 4.67004C69.0665 3.48128 70.3299 2.26205 71.5633 1.01233H71.6235C73.8496 1.01233 76.0456 1.01233 78.2717 1.01233H78.5124L78.362 1.16473C76.2562 3.23744 74.1504 5.31014 72.0446 7.38284C69.9389 9.45554 67.8331 11.4978 65.7273 13.5705C65.3964 14.5154 65.0655 15.4298 64.7346 16.3747C64.3736 17.3196 64.0427 18.2645 63.7118 19.2094L63.6817 19.2704H63.6215C63.5613 19.2704 63.4711 19.2704 63.4109 19.2704C61.3653 19.2704 59.2896 19.2704 57.244 19.2704C57.1838 19.2704 57.0936 19.2704 57.0334 19.2704H56.883L56.9432 19.1485C57.2741 18.2036 57.605 17.2587 57.9359 16.3137C58.2668 15.3688 58.6278 14.4544 58.9587 13.5095C58.4774 11.9855 57.9961 10.4309 57.5448 8.90688C57.0936 7.35236 56.6423 5.79783 56.161 4.24331C55.6797 2.6583 54.1756 1.40858 52.6414 1.01233Z"
    fill="white" />
  <path
    d="M86.7036 6.86466C86.1621 8.38871 85.6206 9.91275 85.0791 11.4368C84.8384 12.1379 84.5978 12.8084 84.3571 13.479C84.0864 14.2106 84.4173 14.9116 85.2295 14.9116C87.0345 14.9116 88.8093 14.9116 90.5842 14.9116C91.4265 14.9116 92.329 14.2106 92.5997 13.4181C92.8404 12.717 93.0811 12.0464 93.3217 11.3758C93.8632 9.85179 94.4047 8.32775 94.9462 6.8037C95.2169 6.04168 94.9161 5.3711 94.0738 5.3711C92.2989 5.3711 90.494 5.3711 88.7191 5.3711C88.5988 5.3711 88.4483 5.3711 88.328 5.3711C87.967 5.3711 87.606 5.3711 87.245 5.3711C87.0645 5.88927 86.8841 6.37697 86.7036 6.86466ZM80.5667 3.72513C80.5667 2.68878 80.2659 1.80483 79.4236 1.19521L79.1829 1.01233H79.4837C80.3561 1.01233 81.2285 1.01233 82.0708 1.01233C83.6351 1.01233 85.1693 1.01233 86.7036 1.01233C90.8249 1.01233 94.9462 1.01233 99.0675 1.01233C100.09 1.01233 101.113 1.34762 101.745 2.1706C102.587 3.20696 102.557 4.60908 102.106 5.82831C101.594 7.2914 101.083 8.724 100.572 10.1871C100.06 11.6197 99.5187 13.0828 99.0073 14.5154C98.1049 17.0453 95.2771 19.2704 92.5997 19.2704C88.4784 19.2704 84.3571 19.2704 80.2358 19.2704C79.213 19.2704 78.2203 18.9351 77.5584 18.1121C76.7462 17.0758 76.7462 15.6736 77.1975 14.4544C77.6487 13.2352 78.0698 11.9855 78.5211 10.7662C78.9422 9.5165 79.3935 8.29727 79.8447 7.07803C80.2057 6.04168 80.5667 4.82244 80.5667 3.72513Z"
    fill="white" />
  <path fill-rule="evenodd" clip-rule="evenodd"
    d="M34.2152 6.26633L39.4497 5.22973L41.8586 0.655029C38.4879 1.10342 35.6481 3.27144 34.2152 6.26633ZM47.1827 5.30925L44.7635 0.699999C47.9819 1.23276 50.6812 3.3373 52.077 6.21568L47.1827 5.30925ZM53.1 10.6949C53.1 13.386 52.0687 15.8321 50.3865 17.6458L49.7071 12.8645L53.0211 9.41161C53.0732 9.83187 53.1 10.2602 53.1 10.6949ZM43.1581 20.8186C44.8135 20.8186 46.375 20.4055 47.7479 19.6767L43.0792 17.6043L38.7505 19.7707C40.0784 20.4409 41.5752 20.8186 43.1581 20.8186ZM36.2762 18.0019C34.3904 16.1593 33.2163 13.567 33.2163 10.6951C33.2163 10.1864 33.2534 9.68661 33.3244 9.19804L36.9248 12.8647L36.2762 18.0019ZM40.4344 6.97826H45.8819L47.565 12.2545L43.1582 15.5153L38.7514 12.2545L40.4344 6.97826Z"
    fill="url(#paint0_linear_3539_3270)" />
  <path fill-rule="evenodd" clip-rule="evenodd"
    d="M109.963 7.96454H116.13C116.822 7.96454 117.604 7.35492 117.875 6.71482V6.68434C117.905 6.68434 117.905 6.65386 117.905 6.62338C118.145 5.98328 117.844 5.37366 117.123 5.37366H110.895C110.769 5.73341 110.636 6.09316 110.503 6.45519L110.503 6.45527C110.321 6.95209 110.137 7.45322 109.963 7.96454ZM107.466 14.9142H113.603C114.355 14.9142 115.137 14.2741 115.408 13.573C115.408 13.5425 115.408 13.5121 115.438 13.5121C115.618 12.872 115.287 12.3233 114.626 12.3233H108.399C108.068 13.2072 107.767 14.0606 107.466 14.914L107.466 14.914L107.466 14.914L107.466 14.914L107.466 14.9142ZM101.299 13.1158L103.465 7.08059C103.856 6.01376 104.157 4.85549 104.187 3.72769C104.187 2.69134 103.886 1.8074 103.074 1.19778L102.803 1.01489H103.134H105.751H121.966C123.079 1.01489 124.192 1.44163 124.824 2.41701C125.455 3.45336 125.395 4.73356 125.004 5.83088C124.884 6.16617 124.763 6.47098 124.643 6.77578C124.192 8.14743 123.169 9.33618 122.056 10.1592C122.688 11.1955 122.628 12.4757 122.206 13.573C122.146 13.7254 122.094 13.8854 122.041 14.0455L122.041 14.0456C121.988 14.2056 121.936 14.3656 121.876 14.5179C121.364 15.8591 120.402 17.0478 119.258 17.9013C118.175 18.6938 116.822 19.3034 115.468 19.3034H99.2234H99.103L99.1331 19.151L101.299 13.1158ZM126.927 3.72769C126.927 2.69134 126.626 1.8074 125.784 1.19778L125.543 1.01489H125.844H128.461H133.094H148.165H148.316L148.255 1.13682C148 1.83787 147.752 2.53131 147.503 3.22474C147.255 3.91819 147.007 4.61163 146.751 5.3127L146.721 5.37366H146.661H134.688H133.635L133.635 5.37371L133.635 5.37375L133.635 5.37379L133.635 5.37383C133.334 6.22724 133.034 7.08065 132.703 7.93406V7.96454H144.104H144.224L144.194 8.08646L144.194 8.08819L144.193 8.08858L144.193 8.08932L144.193 8.08967C143.682 9.49072 143.171 10.8918 142.69 12.2623L142.66 12.3233H142.6H131.108C131.048 12.5214 130.98 12.7119 130.913 12.9024L130.913 12.9025L130.913 12.9025L130.913 12.9025C130.845 13.093 130.777 13.2835 130.717 13.4816C130.447 14.2131 130.747 14.9142 131.59 14.9142H143.141H143.292L143.232 15.0361C142.854 16.0722 142.492 17.1082 142.135 18.132C142.009 18.4937 141.883 18.8539 141.758 19.212L141.727 19.3034H141.637H126.596C125.453 19.3034 124.31 18.8767 123.708 17.8708C123.076 16.8345 123.136 15.5543 123.558 14.457C123.783 13.8474 124.001 13.2302 124.219 12.6131L124.219 12.613L124.219 12.6129L124.219 12.6129L124.219 12.6128L124.219 12.6128L124.219 12.6127C124.438 11.9955 124.656 11.3783 124.881 10.7688C125.107 10.1592 125.325 9.54194 125.543 8.92471L125.543 8.92468C125.761 8.30745 125.979 7.69021 126.205 7.08059C126.596 6.01376 126.897 4.85549 126.927 3.72769ZM148.611 5.37366H155.29C154.883 6.51662 154.477 7.65196 154.071 8.78729L154.071 8.78815C153.665 9.92335 153.259 11.0586 152.853 12.2014L152.852 12.2024L152.852 12.2026L152.852 12.2027C152.01 14.5188 151.168 16.8349 150.356 19.151L150.296 19.273H150.446H157.034H157.125V19.212L157.125 19.211C157.967 16.8948 158.809 14.5786 159.621 12.2623C160.137 10.864 160.641 9.46564 161.147 8.06031L161.148 8.05812C161.469 7.1667 161.792 6.27248 162.118 5.37366H168.887H168.947L168.977 5.3127C169.233 4.61163 169.481 3.91819 169.729 3.22474C169.977 2.53131 170.226 1.83787 170.481 1.13682L170.511 1.01489H170.391H150.115H150.025V1.07586C149.514 2.44749 149.002 3.84962 148.521 5.25174L148.461 5.37366H148.611ZM203.684 1.75754H173.434L168.901 15.5142H196.464C198.068 15.5142 199.49 14.4851 199.992 12.9621L203.684 1.75754Z"
    fill="url(#paint1_linear_3539_3270)" />
  <path
    d="M175.511 7.46584C175.709 6.93863 175.878 6.31839 175.878 5.76017C175.878 5.23296 175.709 4.78329 175.281 4.47317L175.159 4.36462H175.312C175.755 4.36462 176.214 4.36462 176.658 4.36462C177.699 4.36462 178.755 4.36462 179.795 4.36462C179.872 4.36462 179.933 4.36462 180.01 4.36462H180.086L180.056 4.44215C179.811 5.15543 179.551 5.85321 179.29 6.56648C179.137 7.01616 178.969 7.46584 178.816 7.91551C179.061 7.91551 179.321 7.91551 179.581 7.91551C180.193 7.32628 180.821 6.73705 181.448 6.14782C182.076 5.55859 182.718 4.96936 183.346 4.38013L183.361 4.36462H183.392C184.677 4.36462 185.963 4.36462 187.248 4.36462H187.386L187.294 4.45766C186.468 5.23296 185.657 5.99276 184.83 6.76806C184.019 7.52786 183.208 8.28766 182.397 9.03195C182.657 9.79174 182.917 10.5515 183.193 11.3113C183.453 12.0711 183.728 12.8309 184.004 13.6062L184.019 13.6683H183.958C182.657 13.6683 181.372 13.6683 180.086 13.6683H180.056L180.04 13.6372C179.826 13.048 179.612 12.4588 179.413 11.8696C179.199 11.2958 179 10.7221 178.801 10.1329C178.541 10.1329 178.28 10.1329 178.02 10.1329C177.852 10.5981 177.684 11.0632 177.515 11.5129C177.27 12.2262 177.01 12.924 176.75 13.6372V13.6683H176.704C176.643 13.6683 176.566 13.6683 176.49 13.6683C175.449 13.6683 174.409 13.6683 173.353 13.6683H173.292L173.307 13.6062C173.674 12.5828 174.041 11.5594 174.409 10.536C174.776 9.51263 175.143 8.48923 175.511 7.46584Z"
    fill="black" />
  <path
    d="M188.577 5.76017C188.577 5.23296 188.424 4.78329 187.996 4.47317L187.874 4.38013H188.027C188.47 4.38013 188.914 4.38013 189.358 4.38013C190.138 4.38013 190.934 4.38013 191.715 4.38013C194.27 4.38013 196.826 4.38013 199.382 4.38013H199.458L199.428 4.44215C199.167 5.15543 198.923 5.85321 198.662 6.56648L198.647 6.5975H198.617C196.581 6.5975 194.546 6.5975 192.526 6.5975C192.342 6.5975 192.158 6.5975 191.99 6.5975C191.837 7.03167 191.684 7.46584 191.516 7.9V7.91551C193.444 7.91551 195.372 7.91551 197.316 7.91551H197.377L197.362 7.97753C197.101 8.69081 196.841 9.40409 196.596 10.1019L196.581 10.1329H196.551C194.592 10.1329 192.648 10.1329 190.705 10.1329C190.643 10.3345 190.567 10.5205 190.506 10.7221C190.368 11.0943 190.521 11.4509 190.95 11.4509C192.908 11.4509 194.867 11.4509 196.826 11.4509H196.903L196.872 11.5129C196.612 12.2262 196.367 12.9395 196.122 13.6372L196.107 13.6838H196.061C193.52 13.6838 190.965 13.6838 188.409 13.6838C187.828 13.6838 187.246 13.4667 186.94 12.955C186.619 12.4278 186.649 11.7765 186.863 11.2183C187.093 10.5981 187.307 9.96231 187.537 9.34207C187.766 8.72183 187.981 8.08608 188.21 7.46584C188.409 6.92312 188.562 6.33389 188.577 5.76017Z"
    fill="black" />
  <defs>
    <linearGradient id="paint0_linear_3539_3270" x1="36.1785" y1="4.72311" x2="54.915" y2="6.11042"
      gradientUnits="userSpaceOnUse">
      <stop stop-color="#83D146" />
      <stop offset="1" stop-color="#FFE500" />
    </linearGradient>
    <linearGradient id="paint1_linear_3539_3270" x1="102.782" y1="6.30744" x2="202.333" y2="6.30744"
      gradientUnits="userSpaceOnUse">
      <stop stop-color="#84D247" />
      <stop offset="1" stop-color="#E7E20F" />
    </linearGradient>
  </defs>
</svg>
