<svg width="1073" height="111" viewBox="0 0 1073 111" fill="none" xmlns="http://www.w3.org/2000/svg">
  <path
    d="M30.7756 8.17579L28.217 21.842L26.4698 23.9013L29.7147 27.8327L27.0314 42.3726L22.5384 46.4912L14.426 47.4897L10.6194 46.2416L10.557 47.3024L1.32137 47.1152L0.572531 2.12271L20.2919 0.874648L30.7756 8.17579ZM18.2326 38.1916L20.0423 27.2711L10.9938 28.3943L10.8066 39.1277L15.7364 39.4397L18.2326 38.1916ZM18.3574 20.3444L19.1686 11.4207L11.8051 12.232L11.2434 21.1556L18.3574 20.3444ZM43.6418 29.5176L42.9553 37.8796L56.5592 37.8172L55.7479 47.3024L33.2205 47.1776V47.1152H32.9709L34.4061 2.37232L57.5576 1.62348L58.3065 12.4192L45.1394 11.2335L44.3282 20.7188H55.3735L55.5607 29.6424L43.6418 29.5176ZM92.2717 1.18666L91.9597 11.5456L81.788 11.3583L78.9175 47.3024L69.0578 47.1152L70.1811 11.1087L60.8206 10.9215L61.0078 1.62348L92.2717 1.18666ZM126.216 1.18666L125.903 11.5456L115.732 11.3583L112.861 47.3024L103.002 47.1152L104.125 11.1087L94.7644 10.9215L94.9516 1.62348L126.216 1.18666ZM142.562 0.937053L138.88 47.3024L129.02 47.1152L130.455 1.24907L142.562 0.937053ZM168.629 1.24907L180.735 0.937053L177.053 47.3024L167.193 47.1152L156.148 24.5254L154.338 47.3024L145.04 47.1152L146.476 1.24907L157.958 0.937053L167.817 26.7095L168.629 1.24907ZM210.582 30.5785L209.147 30.5161L208.523 46.9904L187.868 47.1152L183.25 41.187L184.436 1.9979L209.896 0.749843L209.646 17.037L201.596 16.7874L201.222 10.3599L195.481 10.4847L193.734 36.2571L195.606 39.0653L200.348 38.9404L200.66 30.4536L196.354 30.3912L196.666 24.2758H210.458L210.582 30.5785ZM264.719 1.12426L275.952 3.30836L265.343 45.368L257.917 47.8641L251.677 43.7455L249.493 35.0091L246.123 45.368L236.825 47.8641L230.585 43.7455L228.65 2.55953L239.633 1.81069L240.195 36.0075L248.619 8.05099L255.796 7.55177L259.415 36.0075L264.719 1.12426ZM288.805 29.5176L288.118 37.8796L301.722 37.8172L300.911 47.3024L278.384 47.1776V47.1152H278.134L279.569 2.37232L302.721 1.62348L303.47 12.4192L290.303 11.2335L289.491 20.7188H300.537L300.724 29.6424L288.805 29.5176ZM337.123 8.17579L334.564 21.842L332.817 23.9013L336.062 27.8327L333.379 42.3726L328.886 46.4912L320.773 47.4897L316.967 46.2416L316.904 47.3024L307.669 47.1152L306.92 2.12271L326.639 0.874648L337.123 8.17579ZM324.58 38.1916L326.39 27.2711L317.341 28.3943L317.154 39.1277L322.084 39.4397L324.58 38.1916ZM324.705 20.3444L325.516 11.4207L318.152 12.232L317.591 21.1556L324.705 20.3444ZM358.289 10.3599L351.487 10.4847L350.8 20.594H366.089L364.591 41.3118L359.35 47.24L339.942 47.1152L339.318 36.6939H347.119V39.0653L352.485 39.1901L354.607 36.3195L354.919 29.2056L343.25 29.58L340.067 26.7095L340.816 1.68589L366.9 0.937053L366.713 13.9793H358.289V10.3599ZM383.276 0.937053L379.594 47.3024L369.735 47.1152L371.17 1.24907L383.276 0.937053ZM417.206 1.18666L416.894 11.5456L406.722 11.3583L403.852 47.3024L393.992 47.1152L395.115 11.1087L385.755 10.9215L385.942 1.62348L417.206 1.18666ZM430.369 29.5176L429.683 37.8796L443.287 37.8172L442.476 47.3024L419.948 47.1776V47.1152H419.698L421.134 2.37232L444.285 1.62348L445.034 12.4192L431.867 11.2335L431.056 20.7188H442.101L442.288 29.6424L430.369 29.5176ZM499.218 1.12426L510.45 3.30836L499.842 45.368L492.416 47.8641L486.176 43.7455L483.992 35.0091L480.622 45.368L471.324 47.8641L465.083 43.7455L463.149 2.55953L474.132 1.81069L474.694 36.0075L483.118 8.05099L490.294 7.55177L493.914 36.0075L499.218 1.12426ZM526.486 0.937053L522.804 47.3024L512.945 47.1152L514.38 1.24907L526.486 0.937053ZM560.416 1.18666L560.104 11.5456L549.932 11.3583L547.061 47.3024L537.202 47.1152L538.325 11.1087L528.965 10.9215L529.152 1.62348L560.416 1.18666ZM581.504 1.24907L593.611 0.937053L589.929 47.3024L580.069 47.1152L580.693 28.7064L574.266 28.8312L572.768 47.3024L562.908 47.1152L564.344 1.24907L576.45 0.937053L574.89 20.4068H580.943L581.504 1.24907ZM178.029 62.9371L174.347 109.302L164.488 109.115L165.923 63.2491L178.029 62.9371ZM204.096 63.2491L216.202 62.9371L212.52 109.302L202.661 109.115L191.615 86.5254L189.806 109.302L180.508 109.115L181.943 63.2491L193.425 62.9371L203.285 88.7095L204.096 63.2491ZM265.707 107.118L254.724 110.675L244.926 91.9544L243.554 109.115L234.318 108.928L235.753 63.0619L247.235 62.7498L246.112 76.8529L253.912 62.8746L263.46 67.2429L251.916 85.7141L265.707 107.118ZM277.958 91.5176L277.271 99.8796L290.875 99.8172L290.064 109.302L267.536 109.178V109.115H267.287L268.722 64.3723L291.873 63.6235L292.622 74.4192L279.455 73.2335L278.644 82.7188H289.689L289.877 91.6424L277.958 91.5176ZM318.725 63.2491L330.831 62.9371L327.149 109.302L317.289 109.115L306.244 86.5254L304.434 109.302L295.136 109.115L296.572 63.2491L308.054 62.9371L317.913 88.7095L318.725 63.2491ZM368.167 68.1165L355.249 88.0854L352.941 109.24L342.457 109.115L343.206 88.0854L332.722 68.1165L343.081 61.8762L351.131 78.0386L360.491 62.8122L368.167 68.1165ZM388.914 63.3739L394.405 109.365L384.92 108.866L383.672 100.878H375.185L372.44 109.115H362.705L372.689 63.9355L388.914 63.3739ZM376.933 92.8905L383.173 93.3897L380.427 76.4161L376.933 92.8905ZM438.093 63.3739L443.584 109.365L434.099 108.866L432.851 100.878H424.364L421.618 109.115H411.884L421.868 63.9355L438.093 63.3739ZM426.111 92.8905L432.352 93.3897L429.606 76.4161L426.111 92.8905ZM469.674 63.2491L481.78 62.9371L478.098 109.302L468.239 109.115L457.193 86.5254L455.384 109.302L446.086 109.115L447.521 63.2491L459.003 62.9371L468.863 88.7095L469.674 63.2491ZM505.575 62.8746L519.553 74.544L509.132 100.94L504.576 106.432L494.592 109.302L485.294 109.115L485.231 65.0588L505.575 62.8746ZM500.707 97.1963L506.885 75.2928L496.901 74.232L494.966 100.441L500.707 97.1963ZM555.432 62.9995L565.042 67.1805L561.485 102.001L558.802 106.744L542.64 109.24L536.399 105.121L536.899 64.5595L555.432 62.9995ZM552.437 97.8827L554.808 72.9215L547.944 73.7952L546.009 99.2556L552.437 97.8827ZM591.128 63.2491L603.234 62.9371L599.553 109.302L589.693 109.115L578.648 86.5254L576.838 109.302L567.54 109.115L568.975 63.2491L580.457 62.9371L590.317 88.7095L591.128 63.2491ZM632.458 100.316L632.021 109.115H605.75L607.185 63.2491L618.667 62.9371L615.734 100.379L632.458 100.316ZM648.793 62.9371L645.112 109.302L635.252 109.115L636.687 63.2491L648.793 62.9371ZM674.86 63.2491L686.966 62.9371L683.285 109.302L673.425 109.115L662.38 86.5254L660.57 109.302L651.272 109.115L652.707 63.2491L664.189 62.9371L674.049 88.7095L674.86 63.2491ZM700.152 91.5176L699.466 99.8796L713.07 99.8172L712.259 109.302L689.731 109.178V109.115H689.482L690.917 64.3723L714.068 63.6235L714.817 74.4192L701.65 73.2335L700.839 82.7188H711.884L712.071 91.6424L700.152 91.5176ZM758.704 79.349L750.717 79.0994L750.342 72.6719L745.163 72.7967L743.478 98.2571L745.288 101.065L749.406 100.94L749.968 95.8234L757.893 96.0106L755.771 108.99L737.55 109.115L732.932 103.187L734.118 64.3099L759.016 63.0619L758.704 79.349ZM787.098 63.3739L792.59 109.365L783.104 108.866L781.856 100.878H773.37L770.624 109.115H760.889L770.874 63.9355L787.098 63.3739ZM775.117 92.8905L781.357 93.3897L778.611 76.4161L775.117 92.8905ZM814.062 72.3599L807.26 72.4847L806.573 82.594H821.862L820.364 103.312L815.123 109.24L795.715 109.115L795.091 98.6939H802.892V101.065L808.258 101.19L810.38 98.3195L810.692 91.2056L799.023 91.58L795.84 88.7095L796.589 63.6859L822.673 62.9371L822.486 75.9793H814.062V72.3599ZM839.049 62.9371L835.367 109.302L825.508 109.115L826.943 63.2491L839.049 62.9371ZM865.116 63.2491L877.222 62.9371L873.541 109.302L863.681 109.115L852.636 86.5254L850.826 109.302L841.528 109.115L842.963 63.2491L854.445 62.9371L864.305 88.7095L865.116 63.2491ZM898.77 62.9995L908.38 67.1805L904.823 102.001L902.14 106.744L885.978 109.24L879.737 105.121L880.237 64.5595L898.77 62.9995ZM895.775 97.8827L898.146 72.9215L891.282 73.7952L889.347 99.2556L895.775 97.8827Z"
    fill="white" />
  <path
    d="M642.868 1.18666L642.556 11.5456L632.384 11.3583L629.514 47.3024L619.654 47.1152L620.777 11.1087L611.417 10.9215L611.604 1.62348L642.868 1.18666ZM663.957 1.24907L676.063 0.937053L672.381 47.3024L662.522 47.1152L663.146 28.7064L656.718 28.8312L655.22 47.3024L645.361 47.1152L646.796 1.24907L658.902 0.937053L657.342 20.4068H663.395L663.957 1.24907ZM688.939 29.5176L688.253 37.8796L701.857 37.8172L701.046 47.3024L678.518 47.1776V47.1152H678.269L679.704 2.37232L702.855 1.62348L703.604 12.4192L690.437 11.2335L689.626 20.7188H700.671L700.858 29.6424L688.939 29.5176ZM740.315 1.24907L752.421 0.937053L748.739 47.3024L738.88 47.1152L739.504 28.7064L733.076 28.8312L731.579 47.3024L721.719 47.1152L723.154 1.24907L735.26 0.937053L733.7 20.4068H739.753L740.315 1.24907ZM768.48 0.937053L764.799 47.3024L754.939 47.1152L756.374 1.24907L768.48 0.937053ZM798.291 30.5785L796.856 30.5161L796.232 46.9904L775.577 47.1152L770.959 41.187L772.144 1.9979L797.605 0.749843L797.355 17.037L789.305 16.7874L788.931 10.3599L783.19 10.4847L781.443 36.2571L783.315 39.0653L788.057 38.9404L788.369 30.4536L784.063 30.3912L784.375 24.2758H798.166L798.291 30.5785ZM819.355 1.24907L831.461 0.937053L827.779 47.3024L817.919 47.1152L818.544 28.7064L812.116 28.8312L810.618 47.3024L800.759 47.1152L802.194 1.24907L814.3 0.937053L812.74 20.4068H818.793L819.355 1.24907ZM844.337 29.5176L843.651 37.8796L857.255 37.8172L856.444 47.3024L833.916 47.1776V47.1152H833.667L835.102 2.37232L858.253 1.62348L859.002 12.4192L845.835 11.2335L845.024 20.7188H856.069L856.256 29.6424L844.337 29.5176ZM880.487 10.3599L873.685 10.4847L872.998 20.594H888.287L886.789 41.3118L881.548 47.24L862.14 47.1152L861.516 36.6939H869.317V39.0653L874.683 39.1901L876.805 36.3195L877.117 29.2056L865.448 29.58L862.265 26.7095L863.014 1.68589L889.098 0.937053L888.911 13.9793H880.487V10.3599ZM923.072 1.18666L922.76 11.5456L912.588 11.3583L909.718 47.3024L899.858 47.1152L900.981 11.1087L891.621 10.9215L891.808 1.62348L923.072 1.18666ZM960.198 0.999456L969.808 5.18045L966.251 40.0013L963.568 44.7439L947.406 47.24L941.165 43.1214L941.665 2.55953L960.198 0.999456ZM957.203 35.8827L959.574 10.9215L952.71 11.7952L950.775 37.2556L957.203 35.8827ZM993.585 0.874648L1007.56 12.544L997.142 38.9404L992.587 44.4319L982.602 47.3024L973.304 47.1152L973.242 3.05875L993.585 0.874648ZM988.718 35.1963L994.896 13.2928L984.911 12.232L982.977 38.4412L988.718 35.1963ZM1030.09 0.874648L1044.07 12.544L1033.65 38.9404L1029.09 44.4319L1019.11 47.3024L1009.81 47.1152L1009.75 3.05875L1030.09 0.874648ZM1025.22 35.1963L1031.4 13.2928L1021.41 12.232L1019.48 38.4412L1025.22 35.1963ZM1064.28 10.3599L1057.48 10.4847L1056.79 20.594H1072.08L1070.59 41.3118L1065.34 47.24L1045.94 47.1152L1045.31 36.6939H1053.11V39.0653L1058.48 39.1901L1060.6 36.3195L1060.91 29.2056L1049.24 29.58L1046.06 26.7095L1046.81 1.68589L1072.89 0.937053L1072.71 13.9793H1064.28V10.3599Z"
    fill="url(#paint0_linear_3539_3305)" />
  <defs>
    <linearGradient id="paint0_linear_3539_3305" x1="612.82" y1="45.2867" x2="1071.52" y2="32.4078"
      gradientUnits="userSpaceOnUse">
      <stop stop-color="#84D246" />
      <stop offset="1" stop-color="#F7E405" />
    </linearGradient>
  </defs>
</svg>
