<svg width="38" height="38" viewBox="0 0 38 38" fill="none" xmlns="http://www.w3.org/2000/svg">
  <path fill-rule="evenodd" clip-rule="evenodd"
    d="M35.8723 19C35.8723 28.401 28.2513 36.022 18.8503 36.022C9.44937 36.022 1.82837 28.401 1.82837 19C1.82837 9.59903 9.44937 1.97803 18.8503 1.97803C28.2513 1.97803 35.8723 9.59903 35.8723 19ZM37.4717 19C37.4717 29.2843 29.1346 37.6213 18.8503 37.6213C8.56606 37.6213 0.229004 29.2843 0.229004 19C0.229004 8.71572 8.56606 0.378662 18.8503 0.378662C29.1346 0.378662 37.4717 8.71572 37.4717 19ZM24.9493 13.5399H25.9587C26.524 13.5407 27.066 13.7656 27.4657 14.1653C27.8655 14.5651 28.0904 15.1071 28.0911 15.6724V18.9896C28.0911 19.1781 28.0163 19.3589 27.8829 19.4922C27.7496 19.6255 27.5688 19.7004 27.3803 19.7004H27.1434V24.6763C27.199 25.1565 27.1454 25.643 26.9864 26.0996C26.8275 26.5561 26.5674 26.9708 26.2256 27.3126C25.8838 27.6544 25.4691 27.9146 25.0125 28.0735C24.556 28.2324 24.0694 28.2861 23.5892 28.2304H14.1115C13.6313 28.2861 13.1447 28.2324 12.6882 28.0735C12.2316 27.9146 11.8169 27.6544 11.4751 27.3126C11.1333 26.9708 10.8732 26.5561 10.7142 26.0996C10.5553 25.643 10.5016 25.1565 10.5573 24.6763V19.7004H10.3204C10.1318 19.7004 9.95104 19.6255 9.81773 19.4922C9.68442 19.3589 9.60953 19.1781 9.60953 18.9896V15.6724C9.61028 15.1071 9.8352 14.5651 10.235 14.1653C10.6347 13.7656 11.1767 13.5407 11.742 13.5399H12.7514C12.558 13.1748 12.4556 12.7684 12.4529 12.3552C12.4522 11.8184 12.6174 11.2944 12.926 10.8552C13.2346 10.4159 13.6714 10.0828 14.1767 9.90141C14.6819 9.72002 15.2309 9.69925 15.7484 9.84193C16.2659 9.98462 16.7267 10.2838 17.0676 10.6985C17.0979 10.7373 18.1641 12.1552 18.8503 13.0679C19.153 12.6652 19.5298 12.1649 19.8584 11.7285C20.2738 11.177 20.6122 10.7276 20.6265 10.707C20.9662 10.2903 21.4267 9.98898 21.9446 9.84449C22.4625 9.69999 23.0124 9.71938 23.5189 9.9C24.0253 10.0806 24.4634 10.4136 24.773 10.8532C25.0825 11.2928 25.2484 11.8175 25.2478 12.3552C25.2451 12.7684 25.1427 13.1748 24.9493 13.5399ZM26.6695 18.2788V15.6724C26.6692 15.4839 26.5943 15.3033 26.461 15.17C26.3278 15.0368 26.1471 14.9618 25.9587 14.9616H19.5612V18.2788H26.6695ZM22.1365 11.2828C21.9787 11.3578 21.84 11.4674 21.7306 11.6036C21.7079 11.6331 21.4953 11.9154 21.2074 12.298C20.9313 12.6647 20.586 13.1234 20.272 13.5399H22.6414C22.9556 13.5399 23.257 13.4151 23.4792 13.1929C23.7013 12.9707 23.8262 12.6694 23.8262 12.3552C23.8262 12.041 23.7013 11.7396 23.4792 11.5175C23.257 11.2953 22.9556 11.1705 22.6414 11.1705C22.4668 11.1694 22.2942 11.2078 22.1365 11.2828ZM14.2221 11.518C14 11.7401 13.875 12.0411 13.8745 12.3552C13.875 12.6692 14 12.9703 14.2221 13.1923C14.4441 13.4144 14.7452 13.5394 15.0592 13.5399H17.4287L17.2604 13.3169C16.6569 12.5169 16.0028 11.6499 15.9577 11.5884C15.8486 11.4562 15.7113 11.35 15.5558 11.2777C15.4004 11.2053 15.2307 11.1687 15.0592 11.1705C14.7452 11.171 14.4441 11.2959 14.2221 11.518ZM11.2397 15.17C11.1064 15.3033 11.0314 15.4839 11.0312 15.6724V18.2788H18.1395V14.9616H11.742C11.5536 14.9618 11.3729 15.0368 11.2397 15.17ZM11.979 19.7004V24.6763C11.979 26.1709 12.6168 26.8088 14.1115 26.8088H18.1395V19.7004H11.979ZM23.5892 26.8088C25.0839 26.8088 25.7217 26.1709 25.7217 24.6763V19.7004H19.5612V26.8088H23.5892Z"
    fill="url(#paint0_linear_3557_2970)" />
  <defs>
    <linearGradient id="paint0_linear_3557_2970" x1="5.77731" y1="7.89254" x2="40.8657" y2="10.5272"
      gradientUnits="userSpaceOnUse">
      <stop stop-color="#83D146" />
      <stop offset="1" stop-color="#FFE500" />
    </linearGradient>
  </defs>
</svg>
