<svg width="305" height="45" viewBox="0 0 305 45" fill="none" xmlns="http://www.w3.org/2000/svg">
  <g filter="url(#filter0_b_3557_2976)">
    <path fill-rule="evenodd" clip-rule="evenodd"
      d="M10 0.5C4.47715 0.5 0 4.97715 0 10.5V35.5C0 41.0228 4.47715 45.5 10 45.5H35C40.5228 45.5 45 41.0228 45 35.5V10.5C45 4.97715 40.5228 0.5 35 0.5H10ZM114 0.5C108.477 0.5 104 4.97715 104 10.5V35.5C104 41.0228 108.477 45.5 114 45.5H139C144.523 45.5 149 41.0228 149 35.5V10.5C149 4.97715 144.523 0.5 139 0.5H114ZM52 10.5C52 4.97715 56.4772 0.5 62 0.5H87C92.5228 0.5 97 4.97715 97 10.5V35.5C97 41.0228 92.5228 45.5 87 45.5H62C56.4771 45.5 52 41.0228 52 35.5V10.5ZM270 0.5C264.477 0.5 260 4.97715 260 10.5V35.5C260 41.0228 264.477 45.5 270 45.5H295C300.523 45.5 305 41.0228 305 35.5V10.5C305 4.97715 300.523 0.5 295 0.5H270ZM156 10.5C156 4.97715 160.477 0.5 166 0.5H191C196.523 0.5 201 4.97715 201 10.5V35.5C201 41.0228 196.523 45.5 191 45.5H166C160.477 45.5 156 41.0228 156 35.5V10.5ZM218 0.5C212.477 0.5 208 4.97715 208 10.5V35.5C208 41.0228 212.477 45.5 218 45.5H243C248.523 45.5 253 41.0228 253 35.5V10.5C253 4.97715 248.523 0.5 243 0.5H218Z"
      fill="url(#paint0_linear_3557_2976)" />
  </g>
  <path
    d="M132.378 13.6201H135.512L128.665 21.446L136.72 32.0953H130.413L125.473 25.6365L119.821 32.0953H116.685L124.008 23.7246L116.281 13.6201H122.748L127.214 19.5236L132.378 13.6201ZM131.278 30.2193H133.015L121.805 15.3975H119.941L131.278 30.2193Z"
    fill="black" />
  <path
    d="M27.3812 25.2391C27.4708 24.5002 27.5379 23.7613 27.5379 23C27.5379 22.2387 27.4708 21.4998 27.3812 20.7609H31.1653C31.3444 21.4774 31.4564 22.2275 31.4564 23C31.4564 23.7725 31.3444 24.5226 31.1653 25.2391M25.3996 31.4638C26.0713 30.2211 26.5863 28.8776 26.9446 27.4782H30.2473C29.1626 29.3459 27.4418 30.7607 25.3996 31.4638ZM25.1197 25.2391H19.8802C19.7683 24.5002 19.7011 23.7613 19.7011 23C19.7011 22.2387 19.7683 21.4886 19.8802 20.7609H25.1197C25.2205 21.4886 25.2988 22.2387 25.2988 23C25.2988 23.7613 25.2205 24.5002 25.1197 25.2391ZM22.5 31.9116C21.5707 30.5681 20.8206 29.0791 20.3616 27.4782H24.6383C24.1793 29.0791 23.4292 30.5681 22.5 31.9116ZM18.0218 18.5218H14.7527C15.8259 16.6488 17.5456 15.2317 19.5891 14.5362C18.9174 15.7789 18.4136 17.1223 18.0218 18.5218ZM14.7527 27.4782H18.0218C18.4136 28.8776 18.9174 30.2211 19.5891 31.4638C17.5496 30.761 15.8322 29.3458 14.7527 27.4782ZM13.8346 25.2391C13.6555 24.5226 13.5435 23.7725 13.5435 23C13.5435 22.2275 13.6555 21.4774 13.8346 20.7609H17.6187C17.5292 21.4998 17.462 22.2387 17.462 23C17.462 23.7613 17.5292 24.5002 17.6187 25.2391M22.5 14.0771C23.4292 15.4206 24.1793 16.9208 24.6383 18.5218H20.3616C20.8206 16.9208 21.5707 15.4206 22.5 14.0771ZM30.2473 18.5218H26.9446C26.5937 17.1353 26.0748 15.7969 25.3996 14.5362C27.4596 15.2415 29.1725 16.6633 30.2473 18.5218ZM22.5 11.8044C16.3088 11.8044 11.3044 16.8424 11.3044 23C11.3044 25.9692 12.484 28.8168 14.5835 30.9164C15.6231 31.956 16.8573 32.7806 18.2156 33.3433C19.5739 33.9059 21.0297 34.1955 22.5 34.1955C25.4692 34.1955 28.3168 33.016 30.4164 30.9164C32.516 28.8168 33.6955 25.9692 33.6955 23C33.6955 21.5297 33.4059 20.0739 32.8433 18.7156C32.2806 17.3573 31.456 16.1231 30.4164 15.0835C29.3768 14.0439 28.1426 13.2193 26.7843 12.6567C25.426 12.094 23.9702 11.8044 22.5 11.8044Z"
    fill="black" />
  <path
    d="M69.7978 11.8044H79.2021C82.7846 11.8044 85.6955 14.7153 85.6955 18.2978V27.7021C85.6955 29.4242 85.0114 31.0759 83.7936 32.2936C82.5759 33.5114 80.9242 34.1955 79.2021 34.1955H69.7978C66.2153 34.1955 63.3044 31.2846 63.3044 27.7021V18.2978C63.3044 16.5757 63.9886 14.9241 65.2063 13.7063C66.4241 12.4886 68.0757 11.8044 69.7978 11.8044ZM69.5739 14.0435C68.505 14.0435 67.4799 14.4682 66.724 15.224C65.9682 15.9799 65.5435 17.005 65.5435 18.0739V27.926C65.5435 30.1539 67.346 31.9564 69.5739 31.9564H79.426C80.4949 31.9564 81.5201 31.5318 82.2759 30.7759C83.0318 30.0201 83.4564 28.9949 83.4564 27.926V18.0739C83.4564 15.846 81.6539 14.0435 79.426 14.0435H69.5739ZM80.3776 15.7229C80.7488 15.7229 81.1047 15.8703 81.3672 16.1328C81.6296 16.3952 81.7771 16.7512 81.7771 17.1223C81.7771 17.4935 81.6296 17.8494 81.3672 18.1119C81.1047 18.3743 80.7488 18.5218 80.3776 18.5218C80.0065 18.5218 79.6505 18.3743 79.3881 18.1119C79.1256 17.8494 78.9782 17.4935 78.9782 17.1223C78.9782 16.7512 79.1256 16.3952 79.3881 16.1328C79.6505 15.8703 80.0065 15.7229 80.3776 15.7229ZM74.5 17.4022C75.9846 17.4022 77.4084 17.992 78.4582 19.0417C79.508 20.0915 80.0977 21.5153 80.0977 23C80.0977 24.4846 79.508 25.9084 78.4582 26.9582C77.4084 28.008 75.9846 28.5977 74.5 28.5977C73.0153 28.5977 71.5915 28.008 70.5417 26.9582C69.492 25.9084 68.9022 24.4846 68.9022 23C68.9022 21.5153 69.492 20.0915 70.5417 19.0417C71.5915 17.992 73.0153 17.4022 74.5 17.4022ZM74.5 19.6413C73.6092 19.6413 72.7549 19.9952 72.125 20.625C71.4952 21.2549 71.1413 22.1092 71.1413 23C71.1413 23.8907 71.4952 24.745 72.125 25.3749C72.7549 26.0048 73.6092 26.3586 74.5 26.3586C75.3907 26.3586 76.245 26.0048 76.8749 25.3749C77.5048 24.745 77.8586 23.8907 77.8586 23C77.8586 22.1092 77.5048 21.2549 76.8749 20.625C76.245 19.9952 75.3907 19.6413 74.5 19.6413Z"
    fill="black" />
  <path
    d="M271.351 34.1486L272.919 28.4229C271.951 26.7468 271.443 24.8469 271.444 22.8987C271.447 16.8078 276.404 11.8513 282.493 11.8513C285.449 11.8522 288.223 13.0033 290.31 15.0919C292.395 17.1804 293.544 19.9564 293.543 22.9089C293.54 29.0007 288.583 33.9572 282.493 33.9572C280.645 33.9563 278.823 33.4927 277.209 32.612L271.351 34.1486ZM277.48 30.6117C279.037 31.5361 280.524 32.0898 282.49 32.0908C287.551 32.0908 291.674 27.9713 291.677 22.9071C291.679 17.8326 287.575 13.7187 282.497 13.7169C277.432 13.7169 273.312 17.8363 273.31 22.8996C273.309 24.9668 273.915 26.5146 274.932 28.1339L274.004 31.5231L277.48 30.6117ZM288.059 25.5354C287.991 25.4202 287.807 25.3514 287.53 25.213C287.254 25.0745 285.897 24.4066 285.643 24.3146C285.39 24.2226 285.206 24.1761 285.021 24.453C284.837 24.7289 284.308 25.3514 284.147 25.5354C283.986 25.7193 283.825 25.7425 283.549 25.6041C283.273 25.4657 282.383 25.1749 281.328 24.2338C280.508 23.5017 279.953 22.5977 279.793 22.3208C279.632 22.0449 279.776 21.8953 279.913 21.7578C280.038 21.6343 280.189 21.4354 280.328 21.2738C280.468 21.114 280.514 20.9988 280.607 20.8139C280.699 20.63 280.653 20.4683 280.583 20.3299C280.514 20.1924 279.962 18.8332 279.732 18.2804C279.507 17.7424 279.28 17.8149 279.111 17.8066L278.581 17.7973C278.397 17.7973 278.098 17.866 277.845 18.1429C277.593 18.4197 276.879 19.0868 276.879 20.446C276.879 21.8052 277.869 23.118 278.006 23.3019C278.145 23.4859 279.952 26.2749 282.722 27.4706C283.381 27.7549 283.895 27.9249 284.296 28.0522C284.957 28.2621 285.559 28.2324 286.035 28.1618C286.565 28.0828 287.668 27.4938 287.899 26.849C288.129 26.2033 288.129 25.6506 288.059 25.5354Z"
    fill="black" />
  <g clip-path="url(#clip0_3557_2976)">
    <path fill-rule="evenodd" clip-rule="evenodd"
      d="M178.5 11.8513C184.657 11.8513 189.649 16.8428 189.649 23H189.649C189.649 28.7001 185.372 33.4003 179.851 34.067V26.4083H182.864H182.865L182.865 26.407H182.867L183.493 23H179.851V21.795C179.851 20.6815 180.121 19.9917 180.76 19.6275C181.154 19.4039 181.687 19.3035 182.383 19.3035C182.951 19.3035 183.408 19.3173 183.671 19.3449V19.3434C183.672 19.3435 183.673 19.3436 183.673 19.3437V16.2555C183.175 16.1172 181.956 15.9785 181.25 15.9785C179.898 15.9785 178.81 16.2102 177.973 16.6869C176.502 17.5231 175.805 19.1147 175.805 21.5332V23H173.508V23.0013H173.506V26.4083H175.805V33.8198C170.95 32.6141 167.351 28.2274 167.351 23C167.351 16.8428 172.343 11.8513 178.5 11.8513Z"
      fill="black" />
  </g>
  <g clip-path="url(#clip1_3557_2976)">
    <path fill-rule="evenodd" clip-rule="evenodd"
      d="M240.486 16.3438C240.831 16.692 241.08 17.1249 241.206 17.5993C241.672 19.3502 241.672 23.0013 241.672 23.0013C241.672 23.0013 241.672 26.6525 241.206 28.4034C241.08 28.8777 240.831 29.3107 240.486 29.6588C240.14 30.007 239.708 30.2582 239.235 30.3873C237.491 30.8561 230.524 30.8561 230.524 30.8561C230.524 30.8561 223.556 30.8561 221.812 30.3873C221.339 30.2582 220.908 30.007 220.562 29.6588C220.216 29.3107 219.967 28.8777 219.841 28.4034C219.375 26.6525 219.375 23.0013 219.375 23.0013C219.375 23.0013 219.375 19.3502 219.841 17.5993C219.967 17.1249 220.216 16.692 220.562 16.3438C220.908 15.9957 221.339 15.7445 221.812 15.6154C223.556 15.1466 230.524 15.1466 230.524 15.1466C230.524 15.1466 237.491 15.1466 239.235 15.6154C239.708 15.7445 240.14 15.9957 240.486 16.3438ZM234.069 22.9998L228.241 19.6844V26.3153L234.069 22.9998Z"
      fill="black" />
  </g>
  <defs>
    <filter id="filter0_b_3557_2976" x="-44.5946" y="-44.0946" width="394.189" height="134.189"
      filterUnits="userSpaceOnUse" color-interpolation-filters="sRGB">
      <feFlood flood-opacity="0" result="BackgroundImageFix" />
      <feGaussianBlur in="BackgroundImageFix" stdDeviation="22.2973" />
      <feComposite in2="SourceAlpha" operator="in" result="effect1_backgroundBlur_3557_2976" />
      <feBlend mode="normal" in="SourceGraphic" in2="effect1_backgroundBlur_3557_2976"
        result="shape" />
    </filter>
    <linearGradient id="paint0_linear_3557_2976" x1="45.438" y1="9.57895" x2="274.969" y2="126.39"
      gradientUnits="userSpaceOnUse">
      <stop stop-color="#83D146" />
      <stop offset="1" stop-color="#FFE500" />
    </linearGradient>
    <clipPath id="clip0_3557_2976">
      <rect width="22.2973" height="22.2973" fill="white" transform="translate(167.351 11.8513)" />
    </clipPath>
    <clipPath id="clip1_3557_2976">
      <rect width="22.2973" height="22.2973" fill="white" transform="translate(219.351 11.8513)" />
    </clipPath>
  </defs>
</svg>
